<svg height="512" viewBox="0 0 64 64" width="512" xmlns="http://www.w3.org/2000/svg" xmlns:xlink="http://www.w3.org/1999/xlink"><linearGradient id="New_Gradient_Swatch_3" gradientUnits="userSpaceOnUse" x1="32" x2="32" y1="63.726" y2="2.831"><stop offset="0" stop-color="#006df0"/><stop offset="1" stop-color="#00e7f0"/></linearGradient><linearGradient id="New_Gradient_Swatch_3-2" x1="7.5" x2="7.5" xlink:href="#New_Gradient_Swatch_3" y1="63.726" y2="2.831"/><linearGradient id="New_Gradient_Swatch_3-3" x1="12.5" x2="12.5" xlink:href="#New_Gradient_Swatch_3" y1="63.726" y2="2.831"/><linearGradient id="New_Gradient_Swatch_3-4" x1="17.5" x2="17.5" xlink:href="#New_Gradient_Swatch_3" y1="63.726" y2="2.831"/><linearGradient id="New_Gradient_Swatch_3-5" x1="39.5" x2="39.5" xlink:href="#New_Gradient_Swatch_3" y1="63.726" y2="2.831"/><linearGradient id="New_Gradient_Swatch_3-6" x1="54.5" x2="54.5" xlink:href="#New_Gradient_Swatch_3" y1="63.726" y2="2.831"/><linearGradient id="New_Gradient_Swatch_3-7" x1="44.5" x2="44.5" xlink:href="#New_Gradient_Swatch_3" y1="63.726" y2="2.831"/><linearGradient id="New_Gradient_Swatch_3-8" x1="47" x2="47" xlink:href="#New_Gradient_Swatch_3" y1="63.726" y2="2.831"/><linearGradient id="New_Gradient_Swatch_3-11" x1="49.5" x2="49.5" xlink:href="#New_Gradient_Swatch_3" y1="63.726" y2="2.831"/><linearGradient id="New_Gradient_Swatch_3-12" x1="9.5" x2="9.5" xlink:href="#New_Gradient_Swatch_3" y1="63.726" y2="2.831"/><linearGradient id="New_Gradient_Swatch_3-14" x1="29.5" x2="29.5" xlink:href="#New_Gradient_Swatch_3" y1="63.726" y2="2.831"/><linearGradient id="New_Gradient_Swatch_3-18" x1="34.5" x2="34.5" xlink:href="#New_Gradient_Swatch_3" y1="63.726" y2="2.831"/><linearGradient id="New_Gradient_Swatch_3-19" x1="21" x2="21" xlink:href="#New_Gradient_Swatch_3" y1="63.726" y2="2.831"/><linearGradient id="New_Gradient_Swatch_3-20" x1="23" x2="23" xlink:href="#New_Gradient_Swatch_3" y1="63.726" y2="2.831"/><g id="browser-user_interface-interface-internet-content" data-name="browser-user interface-interface-internet-content"><path d="m61 2h-58a1 1 0 0 0 -1 1v58a1 1 0 0 0 1 1h58a1 1 0 0 0 1-1v-58a1 1 0 0 0 -1-1zm-1 58h-56v-48h56zm0-50h-56v-6h56z" fill="url(#New_Gradient_Swatch_3)"/><path d="m8 6h-1a1 1 0 0 0 0 2h1a1 1 0 0 0 0-2z" fill="url(#New_Gradient_Swatch_3-2)"/><path d="m13 6h-1a1 1 0 0 0 0 2h1a1 1 0 0 0 0-2z" fill="url(#New_Gradient_Swatch_3-3)"/><path d="m18 6h-1a1 1 0 0 0 0 2h1a1 1 0 0 0 0-2z" fill="url(#New_Gradient_Swatch_3-4)"/><path d="m39 18h1a1 1 0 0 0 0-2h-1a1 1 0 0 0 0 2z" fill="url(#New_Gradient_Swatch_3-5)"/><path d="m55 32h-1a1 1 0 0 0 0 2h1a1 1 0 0 0 0-2z" fill="url(#New_Gradient_Swatch_3-6)"/><path d="m39 34h11a1 1 0 0 0 0-2h-11a1 1 0 0 0 0 2z" fill="url(#New_Gradient_Swatch_3-7)"/><path d="m39 30h16a1 1 0 0 0 0-2h-16a1 1 0 0 0 0 2z" fill="url(#New_Gradient_Swatch_3-8)"/><path d="m39 26h16a1 1 0 0 0 0-2h-16a1 1 0 0 0 0 2z" fill="url(#New_Gradient_Swatch_3-8)"/><path d="m39 22h16a1 1 0 0 0 0-2h-16a1 1 0 0 0 0 2z" fill="url(#New_Gradient_Swatch_3-8)"/><path d="m44 18h11a1 1 0 0 0 0-2h-11a1 1 0 0 0 0 2z" fill="url(#New_Gradient_Swatch_3-11)"/><path d="m9 40h1a1 1 0 0 0 0-2h-1a1 1 0 0 0 0 2z" fill="url(#New_Gradient_Swatch_3-12)"/><path d="m55 54h-1a1 1 0 0 0 0 2h1a1 1 0 0 0 0-2z" fill="url(#New_Gradient_Swatch_3-6)"/><path d="m9 56h41a1 1 0 0 0 0-2h-41a1 1 0 0 0 0 2z" fill="url(#New_Gradient_Swatch_3-14)"/><g fill="url(#New_Gradient_Swatch_3)"><path d="m9 52h46a1 1 0 0 0 0-2h-46a1 1 0 0 0 0 2z"/><path d="m9 48h46a1 1 0 0 0 0-2h-46a1 1 0 0 0 0 2z"/><path d="m9 44h46a1 1 0 0 0 0-2h-46a1 1 0 0 0 0 2z"/></g><path d="m55 38h-41a1 1 0 0 0 0 2h41a1 1 0 0 0 0-2z" fill="url(#New_Gradient_Swatch_3-18)"/><path d="m33 16h-24a1 1 0 0 0 -1 1v16a1 1 0 0 0 1 1h24a1 1 0 0 0 1-1v-16a1 1 0 0 0 -1-1zm-22.13 16 6.13-9.2 6.13 9.2zm14.67 0-1.2-1.79 2.66-3.54 4 5.33zm6.46-2-4.2-5.6a1.014 1.014 0 0 0 -.8-.4 1 1 0 0 0 -.8.4l-3.03 4.05-5.34-8a1.03 1.03 0 0 0 -1.66 0l-6.17 9.25v-11.7h22z" fill="url(#New_Gradient_Swatch_3-19)"/><circle cx="23" cy="22" fill="url(#New_Gradient_Swatch_3-20)" r="2"/></g></svg>